# xmcd
#
# Track frame offsets:
#	150
#	13022
#	28382
#	44620
#	58920
#	69895
#	83535
#	98767
#	113390
#	127375
#	142740
#	157670
#
# Disc length: 2260 seconds
#
# Revision: 0
# Processed by: cddbd v1.5.2PL0 Copyright (c) Steve Scherf et al.
# Submitted via: EasyCDDAExtractor 10.0.6.1
#
DISCID=9508d20c
DTITLE=Various Artist - Cooke Records and Maggard Sound Studios
DYEAR=1900
DGENRE=Gospel
TTITLE0=The Singing Cookes - Hold On To His Promise
TTITLE1=The Cooke Brothers - I'm On My Way To Heaven
TTITLE2=The Redeemed - He Is The Resurrection
TTITLE3=Arlie Petree And Daryl - Words That Men Say
TTITLE4=Dominion Trio - Oh Lord, You've Been So Good
TTITLE5=Tim and Kristy Peace - When You Know That You Know
TTITLE6=Connie Abner - Ninty-Nine And 1/2 Won't Do
TTITLE7=The Cole Brothers - You're Not Alone
TTITLE8=Clyde McKinney - Jesus On My Mind
TTITLE9=Arvee Kiser - Going Home Look
TTITLE10=The Crimson River Singers - Give Jesus A Try
TTITLE11=The Singing Doutts - My God Can Do Anything
EXTD=
EXTT0=
EXTT1=
EXTT2=
EXTT3=
EXTT4=
EXTT5=
EXTT6=
EXTT7=
EXTT8=
EXTT9=
EXTT10=
EXTT11=
PLAYORDER=
